<svg width="21" height="20" viewBox="0 0 21 20" fill="none" xmlns="http://www.w3.org/2000/svg">
<path id="account_circle" d="M4.28988 15.1C5.13988 14.45 6.08988 13.9375 7.13988 13.5625C8.18988 13.1875 9.28988 13 10.4399 13C11.5899 13 12.6899 13.1875 13.7399 13.5625C14.7899 13.9375 15.7399 14.45 16.5899 15.1C17.1732 14.4167 17.6274 13.6417 17.9524 12.775C18.2774 11.9083 18.4399 10.9833 18.4399 10C18.4399 7.78333 17.6607 5.89583 16.1024 4.3375C14.544 2.77917 12.6565 2 10.4399 2C8.22321 2 6.33571 2.77917 4.77738 4.3375C3.21905 5.89583 2.43988 7.78333 2.43988 10C2.43988 10.9833 2.60238 11.9083 2.92738 12.775C3.25238 13.6417 3.70655 14.4167 4.28988 15.1ZM10.4399 11C9.45655 11 8.62738 10.6625 7.95238 9.9875C7.27738 9.3125 6.93988 8.48333 6.93988 7.5C6.93988 6.51667 7.27738 5.6875 7.95238 5.0125C8.62738 4.3375 9.45655 4 10.4399 4C11.4232 4 12.2524 4.3375 12.9274 5.0125C13.6024 5.6875 13.9399 6.51667 13.9399 7.5C13.9399 8.48333 13.6024 9.3125 12.9274 9.9875C12.2524 10.6625 11.4232 11 10.4399 11ZM10.4399 20C9.05655 20 7.75655 19.7375 6.53988 19.2125C5.32321 18.6875 4.26488 17.975 3.36488 17.075C2.46488 16.175 1.75238 15.1167 1.22738 13.9C0.70238 12.6833 0.43988 11.3833 0.43988 10C0.43988 8.61667 0.70238 7.31667 1.22738 6.1C1.75238 4.88333 2.46488 3.825 3.36488 2.925C4.26488 2.025 5.32321 1.3125 6.53988 0.7875C7.75655 0.2625 9.05655 0 10.4399 0C11.8232 0 13.1232 0.2625 14.3399 0.7875C15.5565 1.3125 16.6149 2.025 17.5149 2.925C18.4149 3.825 19.1274 4.88333 19.6524 6.1C20.1774 7.31667 20.4399 8.61667 20.4399 10C20.4399 11.3833 20.1774 12.6833 19.6524 13.9C19.1274 15.1167 18.4149 16.175 17.5149 17.075C16.6149 17.975 15.5565 18.6875 14.3399 19.2125C13.1232 19.7375 11.8232 20 10.4399 20Z" fill="#1C1B1F"/>
</svg>
