<svg width="19" height="18" viewBox="0 0 19 18" fill="none" xmlns="http://www.w3.org/2000/svg">
<path id="Vector" fill-rule="evenodd" clip-rule="evenodd" d="M8.8408 0.292908C9.02833 0.105437 9.28264 0.00012207 9.5478 0.00012207C9.81297 0.00012207 10.0673 0.105437 10.2548 0.292908L16.2548 6.29291L18.2548 8.29291C18.437 8.48151 18.5378 8.73411 18.5355 8.99631C18.5332 9.25851 18.428 9.50932 18.2426 9.69473C18.0572 9.88013 17.8064 9.9853 17.5442 9.98758C17.282 9.98986 17.0294 9.88907 16.8408 9.70691L16.5478 9.41391V15.9999C16.5478 16.5303 16.3371 17.039 15.962 17.4141C15.5869 17.7892 15.0782 17.9999 14.5478 17.9999H11.5478C11.2826 17.9999 11.0282 17.8946 10.8407 17.707C10.6532 17.5195 10.5478 17.2651 10.5478 16.9999V13.9999H8.5478V16.9999C8.5478 17.2651 8.44244 17.5195 8.25491 17.707C8.06737 17.8946 7.81302 17.9999 7.5478 17.9999H4.5478C4.01737 17.9999 3.50866 17.7892 3.13359 17.4141C2.75851 17.039 2.5478 16.5303 2.5478 15.9999V9.41391L2.2548 9.70691C2.0662 9.88907 1.8136 9.98986 1.5514 9.98758C1.2892 9.9853 1.03839 9.88013 0.852982 9.69473C0.667574 9.50932 0.562405 9.25851 0.560127 8.99631C0.557848 8.73411 0.658643 8.48151 0.840801 8.29291L2.8408 6.29291L8.8408 0.292908Z" fill="black"/>
</svg>
