<svg width="21" height="19" viewBox="0 0 21 19" fill="none" xmlns="http://www.w3.org/2000/svg">
<path id="Vector" d="M16.4399 0C17.5007 0 18.5182 0.421427 19.2683 1.17157C20.0185 1.92172 20.4399 2.93913 20.4399 4V12C20.4399 13.0609 20.0185 14.0783 19.2683 14.8284C18.5182 15.5786 17.5007 16 16.4399 16H11.7159L6.95388 18.857C6.81047 18.9431 6.64776 18.9918 6.48065 18.9987C6.31354 19.0056 6.14737 18.9705 5.99734 18.8966C5.84731 18.8227 5.71821 18.7123 5.62187 18.5756C5.52553 18.4389 5.46502 18.2802 5.44588 18.114L5.43988 18V16H4.43988C3.41364 16 2.42665 15.6056 1.68307 14.8983C0.939485 14.191 0.496193 13.225 0.44488 12.2L0.43988 12V4C0.43988 2.93913 0.861308 1.92172 1.61145 1.17157C2.3616 0.421427 3.37901 0 4.43988 0H16.4399ZM12.4399 9H6.43988C6.17466 9 5.92031 9.10536 5.73277 9.29289C5.54524 9.48043 5.43988 9.73478 5.43988 10C5.43988 10.2652 5.54524 10.5196 5.73277 10.7071C5.92031 10.8946 6.17466 11 6.43988 11H12.4399C12.7051 11 12.9595 10.8946 13.147 10.7071C13.3345 10.5196 13.4399 10.2652 13.4399 10C13.4399 9.73478 13.3345 9.48043 13.147 9.29289C12.9595 9.10536 12.7051 9 12.4399 9ZM14.4399 5H6.43988C6.17466 5 5.92031 5.10536 5.73277 5.29289C5.54524 5.48043 5.43988 5.73478 5.43988 6C5.43988 6.26522 5.54524 6.51957 5.73277 6.70711C5.92031 6.89464 6.17466 7 6.43988 7H14.4399C14.7051 7 14.9595 6.89464 15.147 6.70711C15.3345 6.51957 15.4399 6.26522 15.4399 6C15.4399 5.73478 15.3345 5.48043 15.147 5.29289C14.9595 5.10536 14.7051 5 14.4399 5Z" fill="black"/>
</svg>
