<svg width="64" height="60" viewBox="0 0 64 60" fill="none" xmlns="http://www.w3.org/2000/svg">
    <rect x="0.537689" width="62.9246" height="59.9246" rx="29.9623" fill="#040404" />
    <path
        d="M14.677 29.4623C14.6903 28.2925 14.7036 27.342 14.7169 26.6109C14.7302 25.8665 14.7368 25.2683 14.7368 24.8163C14.7501 24.3644 14.7568 24.0121 14.7568 23.7595C14.7568 23.507 14.7568 23.2876 14.7568 23.1015C14.7568 22.9154 14.7568 22.7094 14.7568 22.4834C14.7568 22.2574 14.7568 22.0514 14.7568 21.8653C14.7568 21.6792 14.7568 21.4598 14.7568 21.2072C14.7568 20.9547 14.7501 20.6024 14.7368 20.1504C14.7368 19.6985 14.7302 19.1069 14.7169 18.3758C14.7169 17.6314 14.7102 16.6743 14.6969 15.5045H18.984C19.2764 16.5679 19.529 17.4918 19.7417 18.2761C19.9544 19.0471 20.1405 19.7118 20.3 20.2701C20.4728 20.8151 20.6124 21.2671 20.7187 21.626C20.8251 21.9849 20.9181 22.284 20.9979 22.5233C21.0909 22.7492 21.1707 22.9354 21.2372 23.0816C21.3169 23.2278 21.3967 23.3674 21.4764 23.5003C21.6227 23.7529 21.7822 23.919 21.955 23.9988C22.1278 24.0786 22.387 24.1184 22.7326 24.1184C23.0251 24.1184 23.2378 24.0985 23.3707 24.0586C23.5036 24.0187 23.61 23.9456 23.6897 23.8393C23.7429 23.7728 23.7828 23.6731 23.8094 23.5402C23.8493 23.394 23.8758 23.1946 23.8891 22.942C23.9024 22.6894 23.9091 22.3571 23.9091 21.945C23.9091 21.5728 23.9024 21.1408 23.8891 20.6489C23.8891 20.1438 23.8758 19.6054 23.8493 19.0338C23.836 18.4622 23.816 17.8773 23.7894 17.2791C23.7761 16.6676 23.7562 16.0761 23.7296 15.5045H25.0855C25.0722 16.6743 25.0589 17.6314 25.0456 18.3758C25.0456 19.1069 25.039 19.6985 25.0257 20.1504C25.0257 20.6024 25.0257 20.9547 25.0257 21.2072C25.0257 21.4598 25.0257 21.6792 25.0257 21.8653C25.0257 22.0514 25.0257 22.2574 25.0257 22.4834C25.0257 22.7094 25.0257 22.9154 25.0257 23.1015C25.0257 23.2876 25.0257 23.507 25.0257 23.7595C25.0257 24.0121 25.0257 24.3644 25.0257 24.8163C25.039 25.2683 25.0456 25.8665 25.0456 26.6109C25.0589 27.342 25.0722 28.2925 25.0855 29.4623H21.8752C21.5163 28.1861 21.2039 27.1027 20.9381 26.2121C20.6722 25.3215 20.4462 24.5837 20.2601 23.9988C20.0873 23.4006 19.9411 22.9221 19.8214 22.5631C19.7018 22.1909 19.5955 21.9051 19.5024 21.7057C19.4094 21.5063 19.3229 21.3535 19.2432 21.2471C19.1767 21.1408 19.1036 21.0344 19.0239 20.9281C18.8643 20.7287 18.6716 20.6024 18.4456 20.5492C18.2196 20.4828 17.8873 20.4495 17.4486 20.4495C16.9701 20.4495 16.6377 20.4828 16.4516 20.5492C16.2788 20.6024 16.1592 20.722 16.0927 20.9081C16.0395 21.0145 15.9997 21.1408 15.9731 21.287C15.9465 21.4332 15.9266 21.626 15.9133 21.8653C15.9133 22.1045 15.9133 22.4369 15.9133 22.8622C15.9133 23.168 15.9133 23.5535 15.9133 24.0187C15.9133 24.484 15.9133 25.0024 15.9133 25.574C15.9266 26.1456 15.9398 26.7638 15.9531 27.4284C15.9797 28.0798 16.013 28.7577 16.0528 29.4623H14.677ZM26.8823 29.4623C26.8956 28.5052 26.9089 27.7209 26.9222 27.1094C26.9354 26.4979 26.9421 25.9928 26.9421 25.594C26.9554 25.1819 26.962 24.8296 26.962 24.5372C26.962 24.2314 26.962 23.9257 26.962 23.6199C26.962 23.3009 26.962 22.9221 26.962 22.4834C26.962 22.0447 26.962 21.6725 26.962 21.3668C26.962 21.0477 26.962 20.742 26.962 20.4495C26.962 20.1438 26.9554 19.7915 26.9421 19.3927C26.9421 18.9806 26.9354 18.4689 26.9222 17.8574C26.9089 17.2459 26.8956 16.4616 26.8823 15.5045H28.1983C28.185 16.0362 28.1717 16.4815 28.1584 16.8405C28.1451 17.1861 28.1318 17.4852 28.1185 17.7377C28.1185 17.9903 28.1185 18.2229 28.1185 18.4356C28.1185 18.6483 28.1185 18.8743 28.1185 19.1136C28.1185 19.3927 28.1252 19.6121 28.1385 19.7716C28.1518 19.9311 28.2116 20.0574 28.3179 20.1504C28.4243 20.2435 28.5771 20.31 28.7765 20.3498C28.9892 20.3897 29.3016 20.4163 29.7137 20.4296C30.1258 20.4429 30.6908 20.4495 31.4086 20.4495C32.153 20.4495 32.7379 20.4429 33.1633 20.4296C33.5887 20.403 33.9077 20.3631 34.1204 20.31C34.3331 20.2568 34.4992 20.1837 34.6189 20.0906C34.7917 19.9577 34.9246 19.7649 35.0177 19.5124C35.1107 19.2465 35.1971 18.9541 35.2769 18.635C35.3434 18.316 35.4032 18.0169 35.4563 17.7377C35.5095 17.4586 35.5494 17.1927 35.576 16.9401C35.6159 16.6743 35.6491 16.4284 35.6757 16.2024C35.7156 15.9631 35.7554 15.7305 35.7953 15.5045H37.3107C37.0316 16.7673 36.779 17.8374 36.553 18.7148C36.3403 19.5788 36.1409 20.2834 35.9548 20.8284C35.7687 21.3734 35.576 21.8054 35.3766 22.1245C35.1772 22.4435 34.9579 22.6894 34.7186 22.8622C34.4394 23.0616 34.1071 23.2145 33.7216 23.3209C33.3494 23.4272 32.9705 23.5003 32.585 23.5402C32.1995 23.5801 31.8406 23.6 31.5083 23.6C31.721 24.1051 31.927 24.5372 32.1264 24.8961C32.3391 25.2417 32.5717 25.5275 32.8243 25.7535C33.0902 25.9662 33.3826 26.1257 33.7017 26.232C34.0207 26.3251 34.373 26.3716 34.7585 26.3716C35.0775 26.3716 35.4231 26.3384 35.7953 26.2719C36.1808 26.1922 36.5397 26.0858 36.8721 25.9529C37.2177 25.82 37.4902 25.6737 37.6896 25.5142V29.3028C37.57 29.3559 37.3706 29.4091 37.0914 29.4623C36.8122 29.5022 36.5264 29.5354 36.234 29.562C35.9548 29.6019 35.7089 29.6218 35.4962 29.6218C34.6853 29.6218 33.9875 29.4689 33.4026 29.1632C32.831 28.8574 32.3458 28.4321 31.947 27.887C31.5615 27.342 31.2424 26.704 30.9899 25.9728C30.7506 25.2417 30.5578 24.4574 30.4116 23.6199C29.933 23.6199 29.5542 23.6332 29.275 23.6598C28.9959 23.6864 28.7898 23.7263 28.6569 23.7795C28.524 23.8193 28.411 23.8925 28.3179 23.9988C28.2116 24.1317 28.1451 24.3245 28.1185 24.5771C28.0919 24.8296 28.0787 25.1819 28.0787 25.6339C28.0787 25.7668 28.0787 25.9928 28.0787 26.3118C28.0919 26.6308 28.1052 26.9898 28.1185 27.3886C28.1318 27.7741 28.1451 28.1529 28.1584 28.5251C28.1717 28.884 28.185 29.1964 28.1983 29.4623H26.8823ZM43.965 29.7016C42.6224 29.7016 41.5124 29.449 40.6351 28.9438C39.771 28.4387 39.1329 27.6544 38.7208 26.591C38.3088 25.5275 38.1027 24.1583 38.1027 22.4834C38.1027 20.7952 38.3088 19.426 38.7208 18.3758C39.1462 17.3124 39.7909 16.5281 40.655 16.0229C41.5191 15.5178 42.6224 15.2652 43.965 15.2652C45.3076 15.2652 46.4043 15.5178 47.255 16.0229C48.1191 16.5281 48.7572 17.3124 49.1692 18.3758C49.5946 19.426 49.8073 20.7952 49.8073 22.4834C49.8073 24.1583 49.6013 25.5275 49.1892 26.591C48.7771 27.6544 48.139 28.4387 47.275 28.9438C46.4109 29.449 45.3076 29.7016 43.965 29.7016ZM43.965 26.0327C45.0949 26.0327 46.0121 25.913 46.7167 25.6737C47.4212 25.4212 47.9396 25.0357 48.272 24.5172C48.6043 23.9855 48.7705 23.3076 48.7705 22.4834C48.7705 21.6459 48.6043 20.968 48.272 20.4495C47.9396 19.9311 47.4212 19.5522 46.7167 19.313C46.0121 19.0604 45.0949 18.9341 43.965 18.9341C42.8351 18.9341 41.9112 19.0604 41.1934 19.313C40.4888 19.5522 39.9704 19.9311 39.6381 20.4495C39.3057 20.968 39.1396 21.6459 39.1396 22.4834C39.1396 23.3076 39.3057 23.9855 39.6381 24.5172C39.9704 25.0357 40.4888 25.4212 41.1934 25.6737C41.9112 25.913 42.8351 26.0327 43.965 26.0327ZM17.0007 47.2031V43.3946C17.5856 43.6073 18.2968 43.7801 19.1342 43.913C19.9717 44.0459 20.8025 44.1124 21.6267 44.1124C22.4774 44.1124 23.1155 43.9795 23.5409 43.7136C23.9663 43.4478 24.179 43.0822 24.179 42.6169C24.179 42.1916 23.953 41.8326 23.501 41.5402C23.049 41.2344 22.4442 40.9619 21.6865 40.7227C20.7161 40.4435 19.8786 40.1577 19.1741 39.8653C18.4829 39.5595 17.9578 39.1674 17.5989 38.6888C17.2399 38.2103 17.0605 37.5855 17.0605 36.8145C17.0605 35.6314 17.4792 34.7474 18.3167 34.1625C19.1675 33.5643 20.3572 33.2652 21.8859 33.2652C22.3379 33.2652 22.7898 33.2918 23.2418 33.345C23.7071 33.3849 24.1324 33.4447 24.5179 33.5244C24.9167 33.5909 25.2424 33.664 25.495 33.7438V37.5124C24.7107 37.2731 23.9397 37.1136 23.182 37.0338C22.4376 36.9408 21.7928 36.8942 21.2478 36.8942C20.5433 36.8942 20.0182 37.0006 19.6726 37.2133C19.3403 37.426 19.1741 37.7118 19.1741 38.0707C19.1741 38.4296 19.3669 38.7287 19.7524 38.968C20.1511 39.2072 20.8092 39.4731 21.7264 39.7656C22.7234 40.0314 23.5475 40.3372 24.1989 40.6828C24.8636 41.0284 25.3621 41.4471 25.6944 41.939C26.0267 42.4308 26.1929 43.049 26.1929 43.7934C26.1929 45.0429 25.6944 46.0067 24.6974 46.6846C23.7137 47.3626 22.3645 47.7016 20.6496 47.7016C20.211 47.7016 19.759 47.675 19.2937 47.6218C18.8285 47.5686 18.3965 47.5088 17.9977 47.4423C17.5989 47.3626 17.2665 47.2828 17.0007 47.2031ZM26.8887 47.2031V43.3946C27.4736 43.6073 28.1848 43.7801 29.0223 43.913C29.8598 44.0459 30.6906 44.1124 31.5147 44.1124C32.3655 44.1124 33.0036 43.9795 33.429 43.7136C33.8543 43.4478 34.067 43.0822 34.067 42.6169C34.067 42.1916 33.841 41.8326 33.3891 41.5402C32.9371 41.2344 32.3323 40.9619 31.5746 40.7227C30.6042 40.4435 29.7667 40.1577 29.0622 39.8653C28.3709 39.5595 27.8458 39.1674 27.4869 38.6888C27.128 38.2103 26.9486 37.5855 26.9486 36.8145C26.9486 35.6314 27.3673 34.7474 28.2048 34.1625C29.0555 33.5643 30.2453 33.2652 31.774 33.2652C32.2259 33.2652 32.6779 33.2918 33.1299 33.345C33.5951 33.3849 34.0205 33.4447 34.406 33.5244C34.8048 33.5909 35.1305 33.664 35.3831 33.7438V37.5124C34.5988 37.2731 33.8278 37.1136 33.07 37.0338C32.3256 36.9408 31.6809 36.8942 31.1359 36.8942C30.4314 36.8942 29.9063 37.0006 29.5607 37.2133C29.2283 37.426 29.0622 37.7118 29.0622 38.0707C29.0622 38.4296 29.2549 38.7287 29.6404 38.968C30.0392 39.2072 30.6972 39.4731 31.6144 39.7656C32.6114 40.0314 33.4356 40.3372 34.087 40.6828C34.7516 41.0284 35.2501 41.4471 35.5824 41.939C35.9148 42.4308 36.0809 43.049 36.0809 43.7934C36.0809 45.0429 35.5824 46.0067 34.5855 46.6846C33.6018 47.3626 32.2525 47.7016 30.5377 47.7016C30.099 47.7016 29.6471 47.675 29.1818 47.6218C28.7165 47.5686 28.2845 47.5088 27.8857 47.4423C27.4869 47.3626 27.1546 47.2828 26.8887 47.2031ZM36.4341 47.4623C36.6468 45.9867 36.8262 44.5179 36.9725 43.0556C37.1187 41.5801 37.245 40.058 37.3513 38.4894C37.471 36.9208 37.5773 35.2592 37.6704 33.5045H46.2644C46.3574 35.2592 46.4571 36.9208 46.5635 38.4894C46.6831 40.058 46.816 41.5801 46.9623 43.0556C47.1218 44.5179 47.3012 45.9867 47.5006 47.4623H46.2045C46.2045 47.3426 46.1979 47.1698 46.1846 46.9438C46.1846 46.7046 46.1713 46.4653 46.1447 46.226C46.1314 45.8538 46.0982 45.5215 46.045 45.229C45.9919 44.9233 45.8922 44.7106 45.7459 44.591C45.6928 44.5511 45.6196 44.5179 45.5266 44.4913C45.4335 44.4514 45.2607 44.4182 45.0082 44.3916C44.7689 44.365 44.4033 44.345 43.9115 44.3317C43.4329 44.3185 42.7816 44.3118 41.9574 44.3118C41.1332 44.3118 40.4819 44.3185 40.0033 44.3317C39.5247 44.345 39.1592 44.365 38.9066 44.3916C38.6673 44.4182 38.5012 44.4514 38.4081 44.4913C38.3151 44.5179 38.242 44.5511 38.1888 44.591C38.0426 44.7106 37.9429 44.9233 37.8897 45.229C37.8365 45.5215 37.8033 45.8538 37.79 46.226C37.7634 46.4653 37.7435 46.7046 37.7302 46.9438C37.7302 47.1698 37.7302 47.3426 37.7302 47.4623H36.4341ZM41.9574 41.1813C42.5556 41.1813 43.0607 41.1746 43.4728 41.1613C43.8982 41.148 44.2505 41.1281 44.5296 41.1015C44.8221 41.0616 45.048 41.0085 45.2076 40.942C45.3671 40.8622 45.4867 40.7625 45.5665 40.6429C45.6064 40.4967 45.6263 40.2973 45.6263 40.0447C45.6396 39.7921 45.6329 39.4532 45.6064 39.0278C45.5798 38.6822 45.5532 38.4097 45.5266 38.2103C45.5133 38.0109 45.4934 37.858 45.4668 37.7516C45.4535 37.6453 45.4335 37.5722 45.407 37.5323C45.3804 37.4791 45.3538 37.4393 45.3272 37.4127C45.2076 37.293 45.0148 37.2066 44.7489 37.1535C44.4831 37.1003 44.1242 37.067 43.6722 37.0538C43.2202 37.0405 42.6486 37.0338 41.9574 37.0338C41.2794 37.0338 40.7078 37.0405 40.2426 37.0538C39.7906 37.067 39.4383 37.1003 39.1858 37.1535C38.9332 37.2066 38.7405 37.293 38.6075 37.4127C38.5809 37.4393 38.5543 37.4791 38.5278 37.5323C38.5012 37.5722 38.4746 37.6453 38.448 37.7516C38.4347 37.858 38.4148 38.0109 38.3882 38.2103C38.3749 38.4097 38.355 38.6822 38.3284 39.0278C38.3018 39.4532 38.2885 39.7921 38.2885 40.0447C38.3018 40.2973 38.3284 40.4967 38.3682 40.6429C38.448 40.7625 38.5676 40.8622 38.7272 40.942C38.8867 41.0085 39.106 41.0616 39.3852 41.1015C39.6776 41.1281 40.0299 41.148 40.442 41.1613C40.8674 41.1746 41.3725 41.1813 41.9574 41.1813Z"
        fill="#f7f7f7" />
</svg>