<svg width="20" height="19" viewBox="0 0 20 19" fill="none" xmlns="http://www.w3.org/2000/svg">
<path id="Vector" fill-rule="evenodd" clip-rule="evenodd" d="M14.8588 12.9048C16.1058 11.2971 16.6935 9.27482 16.5023 7.24925C16.3112 5.22367 15.3555 3.34701 13.8298 2.00104C12.3041 0.655069 10.3229 -0.0590965 8.28927 0.00383158C6.25567 0.0667597 4.32243 0.902055 2.88283 2.33978C1.44199 3.77851 0.603964 5.7125 0.539533 7.74765C0.475101 9.78279 1.18911 11.7659 2.53606 13.2929C3.88301 14.8199 5.76153 15.7758 7.78881 15.9659C9.81608 16.1559 11.8395 15.5658 13.4468 14.3158L13.4898 14.3608L17.7318 18.6038C17.8247 18.6967 17.935 18.7704 18.0564 18.8207C18.1778 18.871 18.3079 18.8968 18.4393 18.8968C18.5707 18.8968 18.7008 18.871 18.8222 18.8207C18.9436 18.7704 19.0539 18.6967 19.1468 18.6038C19.2397 18.5109 19.3134 18.4006 19.3637 18.2792C19.414 18.1578 19.4399 18.0277 19.4399 17.8963C19.4399 17.7649 19.414 17.6348 19.3637 17.5134C19.3134 17.392 19.2397 17.2817 19.1468 17.1888L14.9038 12.9468L14.8588 12.9048ZM12.7828 3.75478C13.3474 4.31026 13.7965 4.97203 14.104 5.70192C14.4116 6.43181 14.5716 7.21537 14.5748 8.0074C14.5781 8.79944 14.4244 9.58428 14.1228 10.3166C13.8212 11.049 13.3776 11.7144 12.8175 12.2745C12.2575 12.8345 11.5921 13.2782 10.8597 13.5798C10.1273 13.8814 9.34249 14.035 8.55045 14.0318C7.75842 14.0286 6.97486 13.8686 6.24497 13.561C5.51508 13.2534 4.85331 12.8044 4.29783 12.2398C3.18775 11.1115 2.56849 9.59023 2.57494 8.0074C2.58138 6.42458 3.21301 4.90843 4.33224 3.78919C5.45148 2.66996 6.96763 2.03833 8.55045 2.03188C10.1333 2.02544 11.6545 2.6447 12.7828 3.75478Z" fill="black"/>
</svg>
